<?xml version="1.0" encoding="UTF-8" standalone="no"?>
<!DOCTYPE svg PUBLIC "-//W3C//DTD SVG 1.1//EN"
 "http://www.w3.org/Graphics/SVG/1.1/DTD/svg11.dtd">
<!-- Generated by graphviz version 2.40.1 (20161225.0304)
 -->
<!-- Title: G Pages: 1 -->
<svg width="354pt" height="571pt"
 viewBox="0.00 0.00 354.07 570.80" xmlns="http://www.w3.org/2000/svg" xmlns:xlink="http://www.w3.org/1999/xlink">
<g id="graph0" class="graph" transform="scale(1 1) rotate(0) translate(4 566.8)">
<title>G</title>
<polygon fill="#ffffff" stroke="transparent" points="-4,4 -4,-566.8 350.071,-566.8 350.071,4 -4,4"/>
<!-- x1 -->
<g id="node1" class="node">
<title>x1</title>
</g>
<!-- x2 -->
<g id="node2" class="node">
<title>x2</title>
</g>
<!-- l0 -->
<g id="node3" class="node">
<title>l0</title>
<text text-anchor="middle" x="184.6961" y="-540.6" font-family="Times,serif" font-size="14.00" fill="#000000">¬(∃x¬(p(x) → q(x)) → ¬(∃xp(x) → ∀xq(x)))</text>
</g>
<!-- l1 -->
<g id="node4" class="node">
<title>l1</title>
<text text-anchor="middle" x="184.6961" y="-467.6" font-family="Times,serif" font-size="14.00" fill="#000000">∃x¬(p(x) → q(x)), ¬¬(∃xp(x) → ∀xq(x))</text>
</g>
<!-- l0&#45;&gt;l1 -->
<g id="edge1" class="edge">
<title>l0&#45;&gt;l1</title>
<path fill="none" stroke="#000000" d="M184.6961,-526.7551C184.6961,-517.1912 184.6961,-505.3334 184.6961,-495.0833"/>
<polygon fill="#000000" stroke="#000000" points="184.6961,-489.8904 186.9462,-494.8903 184.6961,-492.3904 184.6962,-494.8904 184.6962,-494.8904 184.6962,-494.8904 184.6961,-492.3904 182.4462,-494.8904 184.6961,-489.8904 184.6961,-489.8904"/>
</g>
<!-- l2 -->
<g id="node5" class="node">
<title>l2</title>
<text text-anchor="middle" x="184.6961" y="-394.6" font-family="Times,serif" font-size="14.00" fill="#000000">∃x¬(p(x) → q(x)), ∃xp(x) → ∀xq(x)</text>
</g>
<!-- l1&#45;&gt;l2 -->
<g id="edge2" class="edge">
<title>l1&#45;&gt;l2</title>
<path fill="none" stroke="#000000" d="M184.6961,-453.7551C184.6961,-444.1912 184.6961,-432.3334 184.6961,-422.0833"/>
<polygon fill="#000000" stroke="#000000" points="184.6961,-416.8904 186.9462,-421.8903 184.6961,-419.3904 184.6962,-421.8904 184.6962,-421.8904 184.6962,-421.8904 184.6961,-419.3904 182.4462,-421.8904 184.6961,-416.8904 184.6961,-416.8904"/>
</g>
<!-- l3 -->
<g id="node6" class="node">
<title>l3</title>
<text text-anchor="middle" x="184.6961" y="-321.6" font-family="Times,serif" font-size="14.00" fill="#000000">¬(p(a) → q(a)), ∃xp(x) → ∀xq(x)</text>
</g>
<!-- l2&#45;&gt;l3 -->
<g id="edge3" class="edge">
<title>l2&#45;&gt;l3</title>
<path fill="none" stroke="#000000" d="M184.6961,-380.7551C184.6961,-371.1912 184.6961,-359.3334 184.6961,-349.0833"/>
<polygon fill="#000000" stroke="#000000" points="184.6961,-343.8904 186.9462,-348.8903 184.6961,-346.3904 184.6962,-348.8904 184.6962,-348.8904 184.6962,-348.8904 184.6961,-346.3904 182.4462,-348.8904 184.6961,-343.8904 184.6961,-343.8904"/>
</g>
<!-- l4 -->
<g id="node7" class="node">
<title>l4</title>
<text text-anchor="middle" x="184.6961" y="-248.6" font-family="Times,serif" font-size="14.00" fill="#000000">p(a), ¬q(a), ∃xp(x) → ∀xq(x)</text>
</g>
<!-- l3&#45;&gt;l4 -->
<g id="edge4" class="edge">
<title>l3&#45;&gt;l4</title>
<path fill="none" stroke="#000000" d="M184.6961,-307.7551C184.6961,-298.1912 184.6961,-286.3334 184.6961,-276.0833"/>
<polygon fill="#000000" stroke="#000000" points="184.6961,-270.8904 186.9462,-275.8903 184.6961,-273.3904 184.6962,-275.8904 184.6962,-275.8904 184.6962,-275.8904 184.6961,-273.3904 182.4462,-275.8904 184.6961,-270.8904 184.6961,-270.8904"/>
</g>
<!-- l41 -->
<g id="node8" class="node">
<title>l41</title>
<text text-anchor="middle" x="111.6961" y="-175.6" font-family="Times,serif" font-size="14.00" fill="#000000">p(a), ¬q(a), ¬∃xp(x)</text>
</g>
<!-- l4&#45;&gt;l41 -->
<g id="edge5" class="edge">
<title>l4&#45;&gt;l41</title>
<path fill="none" stroke="#000000" d="M166.6512,-234.7551C156.6486,-224.7525 144.1368,-212.2407 133.5794,-201.6833"/>
<polygon fill="#000000" stroke="#000000" points="129.7865,-197.8904 134.913,-199.8349 131.5542,-199.6581 133.322,-201.4259 133.322,-201.4259 133.322,-201.4259 131.5542,-199.6581 131.731,-203.0169 129.7865,-197.8904 129.7865,-197.8904"/>
</g>
<!-- l42 -->
<g id="node10" class="node">
<title>l42</title>
<text text-anchor="middle" x="263.6961" y="-175.6" font-family="Times,serif" font-size="14.00" fill="#000000">p(a), ¬q(a), ∀xq(x)</text>
</g>
<!-- l4&#45;&gt;l42 -->
<g id="edge6" class="edge">
<title>l4&#45;&gt;l42</title>
<path fill="none" stroke="#000000" d="M204.2242,-234.7551C215.1438,-224.6648 228.8268,-212.021 240.3144,-201.4059"/>
<polygon fill="#000000" stroke="#000000" points="244.1189,-197.8904 241.9736,-202.9362 242.2827,-199.587 240.4466,-201.2837 240.4466,-201.2837 240.4466,-201.2837 242.2827,-199.587 238.9196,-199.6312 244.1189,-197.8904 244.1189,-197.8904"/>
</g>
<!-- l411 -->
<g id="node9" class="node">
<title>l411</title>
<text text-anchor="middle" x="86.6961" y="-102.6" font-family="Times,serif" font-size="14.00" fill="#000000">p(a), ¬q(a), ¬p(a), ¬∃xp(x)</text>
</g>
<!-- l41&#45;&gt;l411 -->
<g id="edge7" class="edge">
<title>l41&#45;&gt;l411</title>
<path fill="none" stroke="#000000" d="M105.5163,-161.7551C102.211,-152.1035 98.1056,-140.1156 94.5734,-129.8016"/>
<polygon fill="#000000" stroke="#000000" points="92.8914,-124.8904 96.6401,-128.8916 93.7014,-127.2555 94.5115,-129.6207 94.5115,-129.6207 94.5115,-129.6207 93.7014,-127.2555 92.3828,-130.3497 92.8914,-124.8904 92.8914,-124.8904"/>
</g>
<!-- l411&#45;&gt;x1 -->
<g id="edge8" class="edge">
<title>l411&#45;&gt;x1</title>
<path fill="none" stroke="#ffffff" d="M86.6961,-88.4006C86.6961,-74.7367 86.6961,-56.0004 86.6961,-41.2919"/>
<polygon fill="#ffffff" stroke="#ffffff" points="86.6961,-36.072 88.9462,-41.072 86.6961,-38.572 86.6962,-41.072 86.6962,-41.072 86.6962,-41.072 86.6961,-38.572 84.4462,-41.0721 86.6961,-36.072 86.6961,-36.072"/>
<text text-anchor="middle" x="90.7764" y="-58.2" font-family="Times,serif" font-size="14.00" fill="#000000">×</text>
</g>
<!-- l421 -->
<g id="node11" class="node">
<title>l421</title>
<text text-anchor="middle" x="268.6961" y="-102.6" font-family="Times,serif" font-size="14.00" fill="#000000">p(a), ¬q(a), q(a), ∀xq(x)</text>
</g>
<!-- l42&#45;&gt;l421 -->
<g id="edge9" class="edge">
<title>l42&#45;&gt;l421</title>
<path fill="none" stroke="#000000" d="M264.9321,-161.7551C265.5871,-152.1912 266.3993,-140.3334 267.1014,-130.0833"/>
<polygon fill="#000000" stroke="#000000" points="267.457,-124.8904 269.36,-130.0325 267.2862,-127.3845 267.1153,-129.8787 267.1153,-129.8787 267.1153,-129.8787 267.2862,-127.3845 264.8705,-129.7249 267.457,-124.8904 267.457,-124.8904"/>
</g>
<!-- l421&#45;&gt;x2 -->
<g id="edge10" class="edge">
<title>l421&#45;&gt;x2</title>
<path fill="none" stroke="#ffffff" d="M268.6961,-88.4006C268.6961,-74.7367 268.6961,-56.0004 268.6961,-41.2919"/>
<polygon fill="#ffffff" stroke="#ffffff" points="268.6961,-36.072 270.9462,-41.072 268.6961,-38.572 268.6962,-41.072 268.6962,-41.072 268.6962,-41.072 268.6961,-38.572 266.4462,-41.0721 268.6961,-36.072 268.6961,-36.072"/>
<text text-anchor="middle" x="272.7764" y="-58.2" font-family="Times,serif" font-size="14.00" fill="#000000">×</text>
</g>
</g>
</svg>
