<?xml version="1.0" encoding="UTF-8" standalone="no"?>
<!DOCTYPE svg PUBLIC "-//W3C//DTD SVG 1.1//EN"
 "http://www.w3.org/Graphics/SVG/1.1/DTD/svg11.dtd">
<!-- Generated by graphviz version 2.40.1 (20161225.0304)
 -->
<!-- Title: G Pages: 1 -->
<svg width="1040pt" height="733pt"
 viewBox="0.00 0.00 1040.39 732.60" xmlns="http://www.w3.org/2000/svg" xmlns:xlink="http://www.w3.org/1999/xlink">
<g id="graph0" class="graph" transform="scale(1 1) rotate(0) translate(4 728.6)">
<title>G</title>
<polygon fill="#ffffff" stroke="transparent" points="-4,4 -4,-728.6 1036.3922,-728.6 1036.3922,4 -4,4"/>
<!-- o1 -->
<g id="node1" class="node">
<title>o1</title>
</g>
<!-- x11314 -->
<g id="node2" class="node">
<title>x11314</title>
</g>
<!-- x11324 -->
<g id="node3" class="node">
<title>x11324</title>
</g>
<!-- x12314 -->
<g id="node4" class="node">
<title>x12314</title>
</g>
<!-- x12324 -->
<g id="node5" class="node">
<title>x12324</title>
</g>
<!-- l00000 -->
<g id="node6" class="node">
<title>l00000</title>
<text text-anchor="middle" x="523.1961" y="-702.4" font-family="Times,serif" font-size="14.00" fill="#000000">∃x∃yp(x,y) ↔ ∀x∀y¬p(x,y)</text>
</g>
<!-- l10000 -->
<g id="node7" class="node">
<title>l10000</title>
<text text-anchor="middle" x="523.1961" y="-629.4" font-family="Times,serif" font-size="14.00" fill="#000000">∃x∃yp(x,y) → ∀x∀y¬p(x,y), ∀x∀y¬p(x,y) → ∃x∃yp(x,y)</text>
</g>
<!-- l00000&#45;&gt;l10000 -->
<g id="edge1" class="edge">
<title>l00000&#45;&gt;l10000</title>
<path fill="none" stroke="#000000" d="M523.1961,-688.5551C523.1961,-678.9912 523.1961,-667.1334 523.1961,-656.8833"/>
<polygon fill="#000000" stroke="#000000" points="523.1961,-651.6904 525.4462,-656.6903 523.1961,-654.1904 523.1962,-656.6904 523.1962,-656.6904 523.1962,-656.6904 523.1961,-654.1904 520.9462,-656.6904 523.1961,-651.6904 523.1961,-651.6904"/>
</g>
<!-- l11000 -->
<g id="node8" class="node">
<title>l11000</title>
<text text-anchor="middle" x="380.1961" y="-556.4" font-family="Times,serif" font-size="14.00" fill="#000000">∃x∃yp(x,y) → ∀x∀y¬p(x,y), ¬(∀x∀y¬p(x,y))</text>
</g>
<!-- l10000&#45;&gt;l11000 -->
<g id="edge2" class="edge">
<title>l10000&#45;&gt;l11000</title>
<path fill="none" stroke="#000000" d="M487.8478,-615.5551C467.3085,-605.0699 441.3679,-591.8276 420.0977,-580.9694"/>
<polygon fill="#000000" stroke="#000000" points="415.6334,-578.6904 421.1097,-578.9598 417.86,-579.8271 420.0867,-580.9638 420.0867,-580.9638 420.0867,-580.9638 417.86,-579.8271 419.0636,-582.9678 415.6334,-578.6904 415.6334,-578.6904"/>
</g>
<!-- l12000 -->
<g id="node18" class="node">
<title>l12000</title>
<text text-anchor="middle" x="668.1961" y="-556.4" font-family="Times,serif" font-size="14.00" fill="#000000">∃x∃yp(x,y) → ∀x∀y¬p(x,y), ∃x∃yp(x,y)</text>
</g>
<!-- l10000&#45;&gt;l12000 -->
<g id="edge3" class="edge">
<title>l10000&#45;&gt;l12000</title>
<path fill="none" stroke="#000000" d="M559.0388,-615.5551C579.8654,-605.0699 606.1687,-591.8276 627.7364,-580.9694"/>
<polygon fill="#000000" stroke="#000000" points="632.2632,-578.6904 628.809,-582.9485 630.0302,-579.8146 627.7972,-580.9388 627.7972,-580.9388 627.7972,-580.9388 630.0302,-579.8146 626.7854,-578.9291 632.2632,-578.6904 632.2632,-578.6904"/>
</g>
<!-- l11100 -->
<g id="node9" class="node">
<title>l11100</title>
<text text-anchor="middle" x="380.1961" y="-483.4" font-family="Times,serif" font-size="14.00" fill="#000000">∃x∃yp(x,y) → ∀x∀y¬p(x,y), ¬∀y¬p(a,y)</text>
</g>
<!-- l11000&#45;&gt;l11100 -->
<g id="edge4" class="edge">
<title>l11000&#45;&gt;l11100</title>
<path fill="none" stroke="#000000" d="M380.1961,-542.5551C380.1961,-532.9912 380.1961,-521.1334 380.1961,-510.8833"/>
<polygon fill="#000000" stroke="#000000" points="380.1961,-505.6904 382.4462,-510.6903 380.1961,-508.1904 380.1962,-510.6904 380.1962,-510.6904 380.1962,-510.6904 380.1961,-508.1904 377.9462,-510.6904 380.1961,-505.6904 380.1961,-505.6904"/>
</g>
<!-- l11200 -->
<g id="node10" class="node">
<title>l11200</title>
<text text-anchor="middle" x="380.1961" y="-410.4" font-family="Times,serif" font-size="14.00" fill="#000000">∃x∃yp(x,y) → ∀x∀y¬p(x,y), ¬¬p(a,b)</text>
</g>
<!-- l11100&#45;&gt;l11200 -->
<g id="edge5" class="edge">
<title>l11100&#45;&gt;l11200</title>
<path fill="none" stroke="#000000" d="M380.1961,-469.5551C380.1961,-459.9912 380.1961,-448.1334 380.1961,-437.8833"/>
<polygon fill="#000000" stroke="#000000" points="380.1961,-432.6904 382.4462,-437.6903 380.1961,-435.1904 380.1962,-437.6904 380.1962,-437.6904 380.1962,-437.6904 380.1961,-435.1904 377.9462,-437.6904 380.1961,-432.6904 380.1961,-432.6904"/>
</g>
<!-- l11300 -->
<g id="node11" class="node">
<title>l11300</title>
<text text-anchor="middle" x="380.1961" y="-337.4" font-family="Times,serif" font-size="14.00" fill="#000000">∃x∃yp(x,y) → ∀x∀y¬p(x,y), p(a,b)</text>
</g>
<!-- l11200&#45;&gt;l11300 -->
<g id="edge6" class="edge">
<title>l11200&#45;&gt;l11300</title>
<path fill="none" stroke="#000000" d="M380.1961,-396.5551C380.1961,-386.9912 380.1961,-375.1334 380.1961,-364.8833"/>
<polygon fill="#000000" stroke="#000000" points="380.1961,-359.6904 382.4462,-364.6903 380.1961,-362.1904 380.1962,-364.6904 380.1962,-364.6904 380.1962,-364.6904 380.1961,-362.1904 377.9462,-364.6904 380.1961,-359.6904 380.1961,-359.6904"/>
</g>
<!-- l11311 -->
<g id="node12" class="node">
<title>l11311</title>
<text text-anchor="middle" x="197.1961" y="-264.4" font-family="Times,serif" font-size="14.00" fill="#000000">¬∃x∃yp(x,y), p(a,b)</text>
</g>
<!-- l11300&#45;&gt;l11311 -->
<g id="edge7" class="edge">
<title>l11300&#45;&gt;l11311</title>
<path fill="none" stroke="#000000" d="M334.9601,-323.5551C308.3456,-312.9383 274.6445,-299.4947 247.2368,-288.5616"/>
<polygon fill="#000000" stroke="#000000" points="242.5459,-286.6904 248.0237,-286.4531 244.868,-287.6167 247.19,-288.543 247.19,-288.543 247.19,-288.543 244.868,-287.6167 246.3564,-290.6329 242.5459,-286.6904 242.5459,-286.6904"/>
</g>
<!-- l11321 -->
<g id="node15" class="node">
<title>l11321</title>
<text text-anchor="middle" x="382.1961" y="-264.4" font-family="Times,serif" font-size="14.00" fill="#000000">∀x∀y¬p(x,y), p(a,b)</text>
</g>
<!-- l11300&#45;&gt;l11321 -->
<g id="edge8" class="edge">
<title>l11300&#45;&gt;l11321</title>
<path fill="none" stroke="#000000" d="M380.6905,-323.5551C380.9525,-313.9912 381.2774,-302.1334 381.5582,-291.8833"/>
<polygon fill="#000000" stroke="#000000" points="381.7005,-286.6904 383.8126,-291.7501 381.632,-289.1894 381.5634,-291.6885 381.5634,-291.6885 381.5634,-291.6885 381.632,-289.1894 379.3143,-291.6268 381.7005,-286.6904 381.7005,-286.6904"/>
</g>
<!-- l11312 -->
<g id="node13" class="node">
<title>l11312</title>
<text text-anchor="middle" x="161.1961" y="-191.4" font-family="Times,serif" font-size="14.00" fill="#000000">¬∃x∃yp(x,y), ¬∃yp(a,y), p(a,b)</text>
</g>
<!-- l11311&#45;&gt;l11312 -->
<g id="edge9" class="edge">
<title>l11311&#45;&gt;l11312</title>
<path fill="none" stroke="#000000" d="M188.2972,-250.5551C183.4943,-240.8157 177.5181,-228.6975 172.4008,-218.3207"/>
<polygon fill="#000000" stroke="#000000" points="170.1174,-213.6904 174.3469,-217.1795 171.2231,-215.9325 172.3289,-218.1747 172.3289,-218.1747 172.3289,-218.1747 171.2231,-215.9325 170.3109,-219.1699 170.1174,-213.6904 170.1174,-213.6904"/>
</g>
<!-- l11313 -->
<g id="node14" class="node">
<title>l11313</title>
<text text-anchor="middle" x="125.1961" y="-102.6" font-family="Times,serif" font-size="14.00" fill="#000000">¬∃x∃yp(x,y), ¬∃yp(a,y), ¬p(a,b), p(a,b)</text>
</g>
<!-- l11312&#45;&gt;l11313 -->
<g id="edge10" class="edge">
<title>l11312&#45;&gt;l11313</title>
<path fill="none" stroke="#000000" d="M153.7369,-177.2006C148.1489,-163.4169 140.4682,-144.4713 134.4822,-129.7057"/>
<polygon fill="#000000" stroke="#000000" points="132.5226,-124.872 136.4863,-128.6604 133.4619,-127.1889 134.4012,-129.5057 134.4012,-129.5057 134.4012,-129.5057 133.4619,-127.1889 132.316,-130.3511 132.5226,-124.872 132.5226,-124.872"/>
</g>
<!-- l11313&#45;&gt;x11314 -->
<g id="edge13" class="edge">
<title>l11313&#45;&gt;x11314</title>
<path fill="none" stroke="#ffffff" d="M125.1961,-88.4006C125.1961,-74.7367 125.1961,-56.0004 125.1961,-41.2919"/>
<polygon fill="#ffffff" stroke="#ffffff" points="125.1961,-36.072 127.4462,-41.072 125.1961,-38.572 125.1962,-41.072 125.1962,-41.072 125.1962,-41.072 125.1961,-38.572 122.9462,-41.0721 125.1961,-36.072 125.1961,-36.072"/>
<text text-anchor="middle" x="129.2764" y="-58.2" font-family="Times,serif" font-size="14.00" fill="#000000">×</text>
</g>
<!-- l11322 -->
<g id="node16" class="node">
<title>l11322</title>
<text text-anchor="middle" x="386.1961" y="-191.4" font-family="Times,serif" font-size="14.00" fill="#000000">∀x∀y¬p(x,y), ∀y¬p(a,y), p(a,b)</text>
</g>
<!-- l11321&#45;&gt;l11322 -->
<g id="edge11" class="edge">
<title>l11321&#45;&gt;l11322</title>
<path fill="none" stroke="#000000" d="M383.1849,-250.5551C383.7089,-240.9912 384.3587,-229.1334 384.9203,-218.8833"/>
<polygon fill="#000000" stroke="#000000" points="385.2048,-213.6904 387.1778,-218.806 385.068,-216.1866 384.9312,-218.6829 384.9312,-218.6829 384.9312,-218.6829 385.068,-216.1866 382.6846,-218.5597 385.2048,-213.6904 385.2048,-213.6904"/>
</g>
<!-- l11323 -->
<g id="node17" class="node">
<title>l11323</title>
<text text-anchor="middle" x="393.1961" y="-102.6" font-family="Times,serif" font-size="14.00" fill="#000000">∀x∀y¬p(x,y), ∀y¬p(a,y), ¬p(a,b), p(a,b)</text>
</g>
<!-- l11322&#45;&gt;l11323 -->
<g id="edge12" class="edge">
<title>l11322&#45;&gt;l11323</title>
<path fill="none" stroke="#000000" d="M387.6465,-177.2006C388.7236,-163.5367 390.2006,-144.8004 391.36,-130.0919"/>
<polygon fill="#000000" stroke="#000000" points="391.7715,-124.872 393.6215,-130.0334 391.575,-127.3643 391.3785,-129.8566 391.3785,-129.8566 391.3785,-129.8566 391.575,-127.3643 389.1354,-129.6797 391.7715,-124.872 391.7715,-124.872"/>
</g>
<!-- l11323&#45;&gt;x11324 -->
<g id="edge14" class="edge">
<title>l11323&#45;&gt;x11324</title>
<path fill="none" stroke="#ffffff" d="M393.1961,-88.4006C393.1961,-74.7367 393.1961,-56.0004 393.1961,-41.2919"/>
<polygon fill="#ffffff" stroke="#ffffff" points="393.1961,-36.072 395.4462,-41.072 393.1961,-38.572 393.1962,-41.072 393.1962,-41.072 393.1962,-41.072 393.1961,-38.572 390.9462,-41.0721 393.1961,-36.072 393.1961,-36.072"/>
<text text-anchor="middle" x="397.2764" y="-58.2" font-family="Times,serif" font-size="14.00" fill="#000000">×</text>
</g>
<!-- l12100 -->
<g id="node19" class="node">
<title>l12100</title>
<text text-anchor="middle" x="668.1961" y="-483.4" font-family="Times,serif" font-size="14.00" fill="#000000">∃x∃yp(x,y) → ∀x∀y¬p(x,y), ∃yp(a,y)</text>
</g>
<!-- l12000&#45;&gt;l12100 -->
<g id="edge15" class="edge">
<title>l12000&#45;&gt;l12100</title>
<path fill="none" stroke="#000000" d="M668.1961,-542.5551C668.1961,-532.9912 668.1961,-521.1334 668.1961,-510.8833"/>
<polygon fill="#000000" stroke="#000000" points="668.1961,-505.6904 670.4462,-510.6903 668.1961,-508.1904 668.1962,-510.6904 668.1962,-510.6904 668.1962,-510.6904 668.1961,-508.1904 665.9462,-510.6904 668.1961,-505.6904 668.1961,-505.6904"/>
</g>
<!-- l12200 -->
<g id="node20" class="node">
<title>l12200</title>
<text text-anchor="middle" x="668.1961" y="-410.4" font-family="Times,serif" font-size="14.00" fill="#000000">∃x∃yp(x,y) → ∀x∀y¬p(x,y), p(a,b)</text>
</g>
<!-- l12100&#45;&gt;l12200 -->
<g id="edge16" class="edge">
<title>l12100&#45;&gt;l12200</title>
<path fill="none" stroke="#000000" d="M668.1961,-469.5551C668.1961,-459.9912 668.1961,-448.1334 668.1961,-437.8833"/>
<polygon fill="#000000" stroke="#000000" points="668.1961,-432.6904 670.4462,-437.6903 668.1961,-435.1904 668.1962,-437.6904 668.1962,-437.6904 668.1962,-437.6904 668.1961,-435.1904 665.9462,-437.6904 668.1961,-432.6904 668.1961,-432.6904"/>
</g>
<!-- l12210 -->
<g id="node21" class="node">
<title>l12210</title>
<text text-anchor="middle" x="655.1961" y="-337.4" font-family="Times,serif" font-size="14.00" fill="#000000">¬∃x∃yp(x,y), p(a,b)</text>
</g>
<!-- l12200&#45;&gt;l12210 -->
<g id="edge17" class="edge">
<title>l12200&#45;&gt;l12210</title>
<path fill="none" stroke="#000000" d="M664.9826,-396.5551C663.2795,-386.9912 661.1678,-375.1334 659.3424,-364.8833"/>
<polygon fill="#000000" stroke="#000000" points="658.4177,-359.6904 661.5095,-364.2184 658.856,-362.1516 659.2944,-364.6129 659.2944,-364.6129 659.2944,-364.6129 658.856,-362.1516 657.0792,-365.0074 658.4177,-359.6904 658.4177,-359.6904"/>
</g>
<!-- l12220 -->
<g id="node24" class="node">
<title>l12220</title>
<text text-anchor="middle" x="850.1961" y="-337.4" font-family="Times,serif" font-size="14.00" fill="#000000">∀x∀y¬p(x,y), p(a,b)</text>
</g>
<!-- l12200&#45;&gt;l12220 -->
<g id="edge18" class="edge">
<title>l12200&#45;&gt;l12220</title>
<path fill="none" stroke="#000000" d="M713.1849,-396.5551C739.654,-385.9383 773.1709,-372.4947 800.4288,-361.5616"/>
<polygon fill="#000000" stroke="#000000" points="805.0941,-359.6904 801.2911,-363.6401 802.7738,-360.6211 800.4535,-361.5518 800.4535,-361.5518 800.4535,-361.5518 802.7738,-360.6211 799.6158,-359.4635 805.0941,-359.6904 805.0941,-359.6904"/>
</g>
<!-- l12312 -->
<g id="node22" class="node">
<title>l12312</title>
<text text-anchor="middle" x="647.1961" y="-264.4" font-family="Times,serif" font-size="14.00" fill="#000000">¬∃x∃yp(x,y), ¬∃yp(a,y), p(a,b)</text>
</g>
<!-- l12210&#45;&gt;l12312 -->
<g id="edge19" class="edge">
<title>l12210&#45;&gt;l12312</title>
<path fill="none" stroke="#000000" d="M653.2186,-323.5551C652.1705,-313.9912 650.871,-302.1334 649.7477,-291.8833"/>
<polygon fill="#000000" stroke="#000000" points="649.1786,-286.6904 651.96,-291.4155 649.451,-289.1755 649.7234,-291.6606 649.7234,-291.6606 649.7234,-291.6606 649.451,-289.1755 647.4868,-291.9057 649.1786,-286.6904 649.1786,-286.6904"/>
</g>
<!-- l12313 -->
<g id="node23" class="node">
<title>l12313</title>
<text text-anchor="middle" x="639.1961" y="-191.4" font-family="Times,serif" font-size="14.00" fill="#000000">¬∃x∃yp(x,y), ¬∃yp(a,y), ¬p(a,b), p(a,b)</text>
</g>
<!-- l12312&#45;&gt;l12313 -->
<g id="edge20" class="edge">
<title>l12312&#45;&gt;l12313</title>
<path fill="none" stroke="#000000" d="M645.2186,-250.5551C644.1705,-240.9912 642.871,-229.1334 641.7477,-218.8833"/>
<polygon fill="#000000" stroke="#000000" points="641.1786,-213.6904 643.96,-218.4155 641.451,-216.1755 641.7234,-218.6606 641.7234,-218.6606 641.7234,-218.6606 641.451,-216.1755 639.4868,-218.9057 641.1786,-213.6904 641.1786,-213.6904"/>
</g>
<!-- l12313&#45;&gt;x12314 -->
<g id="edge23" class="edge">
<title>l12313&#45;&gt;x12314</title>
<path fill="none" stroke="#ffffff" d="M639.1961,-177.2006C639.1961,-163.5367 639.1961,-144.8004 639.1961,-130.0919"/>
<polygon fill="#ffffff" stroke="#ffffff" points="639.1961,-124.872 641.4462,-129.872 639.1961,-127.372 639.1962,-129.872 639.1962,-129.872 639.1962,-129.872 639.1961,-127.372 636.9462,-129.8721 639.1961,-124.872 639.1961,-124.872"/>
<text text-anchor="middle" x="643.2764" y="-147" font-family="Times,serif" font-size="14.00" fill="#000000">×</text>
</g>
<!-- l12322 -->
<g id="node25" class="node">
<title>l12322</title>
<text text-anchor="middle" x="888.1961" y="-264.4" font-family="Times,serif" font-size="14.00" fill="#000000">∀x∀y¬p(x,y), ∀y¬p(a,y), p(a,b)</text>
</g>
<!-- l12220&#45;&gt;l12322 -->
<g id="edge21" class="edge">
<title>l12220&#45;&gt;l12322</title>
<path fill="none" stroke="#000000" d="M859.5894,-323.5551C864.6591,-313.8157 870.9673,-301.6975 876.3689,-291.3207"/>
<polygon fill="#000000" stroke="#000000" points="878.7792,-286.6904 878.4663,-292.1644 877.6248,-288.9079 876.4705,-291.1255 876.4705,-291.1255 876.4705,-291.1255 877.6248,-288.9079 874.4747,-290.0865 878.7792,-286.6904 878.7792,-286.6904"/>
</g>
<!-- l12323 -->
<g id="node26" class="node">
<title>l12323</title>
<text text-anchor="middle" x="907.1961" y="-191.4" font-family="Times,serif" font-size="14.00" fill="#000000">∀x∀y¬p(x,y), ∀y¬p(a,y), ¬p(a,b), p(a,b)</text>
</g>
<!-- l12322&#45;&gt;l12323 -->
<g id="edge22" class="edge">
<title>l12322&#45;&gt;l12323</title>
<path fill="none" stroke="#000000" d="M892.8927,-250.5551C895.4048,-240.9035 898.5249,-228.9156 901.2094,-218.6016"/>
<polygon fill="#000000" stroke="#000000" points="902.4877,-213.6904 903.4056,-219.0959 901.8579,-216.1098 901.2282,-218.5292 901.2282,-218.5292 901.2282,-218.5292 901.8579,-216.1098 899.0507,-217.9624 902.4877,-213.6904 902.4877,-213.6904"/>
</g>
<!-- l12323&#45;&gt;x12324 -->
<g id="edge24" class="edge">
<title>l12323&#45;&gt;x12324</title>
<path fill="none" stroke="#ffffff" d="M907.1961,-177.2006C907.1961,-163.5367 907.1961,-144.8004 907.1961,-130.0919"/>
<polygon fill="#ffffff" stroke="#ffffff" points="907.1961,-124.872 909.4462,-129.872 907.1961,-127.372 907.1962,-129.872 907.1962,-129.872 907.1962,-129.872 907.1961,-127.372 904.9462,-129.8721 907.1961,-124.872 907.1961,-124.872"/>
<text text-anchor="middle" x="911.2764" y="-147" font-family="Times,serif" font-size="14.00" fill="#000000">×</text>
</g>
</g>
</svg>
