<?xml version="1.0" encoding="UTF-8" standalone="no"?>
<!DOCTYPE svg PUBLIC "-//W3C//DTD SVG 1.1//EN"
 "http://www.w3.org/Graphics/SVG/1.1/DTD/svg11.dtd">
<!-- Generated by graphviz version 2.40.1 (20161225.0304)
 -->
<!-- Title: G Pages: 1 -->
<svg width="701pt" height="514pt"
 viewBox="0.00 0.00 701.07 513.60" xmlns="http://www.w3.org/2000/svg" xmlns:xlink="http://www.w3.org/1999/xlink">
<g id="graph0" class="graph" transform="scale(1 1) rotate(0) translate(4 509.6)">
<title>G</title>
<polygon fill="#ffffff" stroke="transparent" points="-4,4 -4,-509.6 697.0714,-509.6 697.0714,4 -4,4"/>
<!-- x1211 -->
<g id="node1" class="node">
<title>x1211</title>
</g>
<!-- x1222 -->
<g id="node2" class="node">
<title>x1222</title>
</g>
<!-- x2310 -->
<g id="node3" class="node">
<title>x2310</title>
</g>
<!-- l0000 -->
<g id="node4" class="node">
<title>l0000</title>
<text text-anchor="middle" x="472.5534" y="-483.4" font-family="Times,serif" font-size="14.00" fill="#000000">∀x∃y(p(x,y) ∧ ¬p(y,x)) → ∃x∀y(p(x,y) ∧ ¬p(y,x))</text>
</g>
<!-- l1000 -->
<g id="node5" class="node">
<title>l1000</title>
<text text-anchor="middle" x="380.5534" y="-410.4" font-family="Times,serif" font-size="14.00" fill="#000000">¬(∀x∃y(p(x,y) ∧ ¬p(y,x)))</text>
</g>
<!-- l0000&#45;&gt;l1000 -->
<g id="edge1" class="edge">
<title>l0000&#45;&gt;l1000</title>
<path fill="none" stroke="#000000" d="M449.8118,-469.5551C436.9847,-459.377 420.8833,-446.6009 407.4343,-435.9294"/>
<polygon fill="#000000" stroke="#000000" points="403.3522,-432.6904 408.6676,-434.0357 405.3106,-434.2443 407.269,-435.7983 407.269,-435.7983 407.269,-435.7983 405.3106,-434.2443 405.8704,-437.5608 403.3522,-432.6904 403.3522,-432.6904"/>
</g>
<!-- l2000 -->
<g id="node11" class="node">
<title>l2000</title>
<text text-anchor="middle" x="567.5534" y="-410.4" font-family="Times,serif" font-size="14.00" fill="#000000">∃x∀y(p(x,y) ∧ ¬p(y,x))</text>
</g>
<!-- l0000&#45;&gt;l2000 -->
<g id="edge2" class="edge">
<title>l0000&#45;&gt;l2000</title>
<path fill="none" stroke="#000000" d="M496.0366,-469.5551C509.2819,-459.377 525.9084,-446.6009 539.7959,-435.9294"/>
<polygon fill="#000000" stroke="#000000" points="544.0112,-432.6904 541.4174,-437.521 542.0288,-434.2136 540.0465,-435.7369 540.0465,-435.7369 540.0465,-435.7369 542.0288,-434.2136 538.6755,-433.9528 544.0112,-432.6904 544.0112,-432.6904"/>
</g>
<!-- l1100 -->
<g id="node6" class="node">
<title>l1100</title>
<text text-anchor="middle" x="315.5534" y="-337.4" font-family="Times,serif" font-size="14.00" fill="#000000">¬∃y(p(a,y) ∧ ¬p(y,a))</text>
</g>
<!-- l1000&#45;&gt;l1100 -->
<g id="edge3" class="edge">
<title>l1000&#45;&gt;l1100</title>
<path fill="none" stroke="#000000" d="M364.486,-396.5551C355.5796,-386.5525 344.439,-374.0407 335.0385,-363.4833"/>
<polygon fill="#000000" stroke="#000000" points="331.6613,-359.6904 336.6667,-361.9283 333.3238,-361.5575 334.9863,-363.4246 334.9863,-363.4246 334.9863,-363.4246 333.3238,-361.5575 333.3059,-364.9209 331.6613,-359.6904 331.6613,-359.6904"/>
</g>
<!-- l1200 -->
<g id="node7" class="node">
<title>l1200</title>
<text text-anchor="middle" x="299.5534" y="-264.4" font-family="Times,serif" font-size="14.00" fill="#000000">¬∃y(p(a,y) ∧ ¬p(y,a)), ¬(p(a,a) ∧ ¬p(a,a))</text>
</g>
<!-- l1100&#45;&gt;l1200 -->
<g id="edge4" class="edge">
<title>l1100&#45;&gt;l1200</title>
<path fill="none" stroke="#000000" d="M311.5983,-323.5551C309.4829,-313.9035 306.8555,-301.9156 304.5948,-291.6016"/>
<polygon fill="#000000" stroke="#000000" points="303.5184,-286.6904 306.7868,-291.0927 304.0537,-289.1324 304.589,-291.5744 304.589,-291.5744 304.589,-291.5744 304.0537,-289.1324 302.3911,-292.0562 303.5184,-286.6904 303.5184,-286.6904"/>
</g>
<!-- l1210 -->
<g id="node8" class="node">
<title>l1210</title>
<text text-anchor="middle" x="98.5534" y="-191.4" font-family="Times,serif" font-size="14.00" fill="#000000">¬∃y(p(a,y) ∧ ¬p(y,a)), ¬p(a,a)</text>
</g>
<!-- l1200&#45;&gt;l1210 -->
<g id="edge5" class="edge">
<title>l1200&#45;&gt;l1210</title>
<path fill="none" stroke="#000000" d="M249.868,-250.5551C220.5149,-239.8945 183.3136,-226.3836 153.1433,-215.4262"/>
<polygon fill="#000000" stroke="#000000" points="148.3638,-213.6904 153.8316,-213.2824 150.7137,-214.5438 153.0635,-215.3973 153.0635,-215.3973 153.0635,-215.3973 150.7137,-214.5438 152.2954,-217.5121 148.3638,-213.6904 148.3638,-213.6904"/>
</g>
<!-- l1220 -->
<g id="node9" class="node">
<title>l1220</title>
<text text-anchor="middle" x="318.5534" y="-191.4" font-family="Times,serif" font-size="14.00" fill="#000000">¬∃y(p(a,y) ∧ ¬p(y,a)), ¬¬p(a,a)</text>
</g>
<!-- l1200&#45;&gt;l1220 -->
<g id="edge6" class="edge">
<title>l1200&#45;&gt;l1220</title>
<path fill="none" stroke="#000000" d="M304.25,-250.5551C306.7621,-240.9035 309.8822,-228.9156 312.5667,-218.6016"/>
<polygon fill="#000000" stroke="#000000" points="313.845,-213.6904 314.7629,-219.0959 313.2152,-216.1098 312.5855,-218.5292 312.5855,-218.5292 312.5855,-218.5292 313.2152,-216.1098 310.408,-217.9624 313.845,-213.6904 313.845,-213.6904"/>
</g>
<!-- l1210&#45;&gt;x1211 -->
<g id="edge11" class="edge">
<title>l1210&#45;&gt;x1211</title>
<path fill="none" stroke="#ffffff" d="M98.5534,-177.2006C98.5534,-163.5367 98.5534,-144.8004 98.5534,-130.0919"/>
<polygon fill="#ffffff" stroke="#ffffff" points="98.5534,-124.872 100.8035,-129.872 98.5534,-127.372 98.5535,-129.872 98.5535,-129.872 98.5535,-129.872 98.5534,-127.372 96.3035,-129.8721 98.5534,-124.872 98.5534,-124.872"/>
<text text-anchor="middle" x="103.8034" y="-147" font-family="Times,serif" font-size="14.00" fill="#000000">⊙</text>
</g>
<!-- l1221 -->
<g id="node10" class="node">
<title>l1221</title>
<text text-anchor="middle" x="318.5534" y="-102.6" font-family="Times,serif" font-size="14.00" fill="#000000">¬∃y(p(a,y) ∧ ¬p(y,a)), p(a,a)</text>
</g>
<!-- l1220&#45;&gt;l1221 -->
<g id="edge7" class="edge">
<title>l1220&#45;&gt;l1221</title>
<path fill="none" stroke="#000000" d="M318.5534,-177.2006C318.5534,-163.5367 318.5534,-144.8004 318.5534,-130.0919"/>
<polygon fill="#000000" stroke="#000000" points="318.5534,-124.872 320.8035,-129.872 318.5534,-127.372 318.5535,-129.872 318.5535,-129.872 318.5535,-129.872 318.5534,-127.372 316.3035,-129.8721 318.5534,-124.872 318.5534,-124.872"/>
</g>
<!-- l1221&#45;&gt;x1222 -->
<g id="edge12" class="edge">
<title>l1221&#45;&gt;x1222</title>
<path fill="none" stroke="#ffffff" d="M318.5534,-88.4006C318.5534,-74.7367 318.5534,-56.0004 318.5534,-41.2919"/>
<polygon fill="#ffffff" stroke="#ffffff" points="318.5534,-36.072 320.8035,-41.072 318.5534,-38.572 318.5535,-41.072 318.5535,-41.072 318.5535,-41.072 318.5534,-38.572 316.3035,-41.0721 318.5534,-36.072 318.5534,-36.072"/>
<text text-anchor="middle" x="323.8034" y="-58.2" font-family="Times,serif" font-size="14.00" fill="#000000">⊙</text>
</g>
<!-- l2100 -->
<g id="node12" class="node">
<title>l2100</title>
<text text-anchor="middle" x="571.5534" y="-337.4" font-family="Times,serif" font-size="14.00" fill="#000000">∀y(p(a,y) ∧ ¬p(y,a))</text>
</g>
<!-- l2000&#45;&gt;l2100 -->
<g id="edge8" class="edge">
<title>l2000&#45;&gt;l2100</title>
<path fill="none" stroke="#000000" d="M568.5422,-396.5551C569.0662,-386.9912 569.716,-375.1334 570.2776,-364.8833"/>
<polygon fill="#000000" stroke="#000000" points="570.5621,-359.6904 572.5351,-364.806 570.4253,-362.1866 570.2885,-364.6829 570.2885,-364.6829 570.2885,-364.6829 570.4253,-362.1866 568.0419,-364.5597 570.5621,-359.6904 570.5621,-359.6904"/>
</g>
<!-- l2200 -->
<g id="node13" class="node">
<title>l2200</title>
<text text-anchor="middle" x="572.5534" y="-264.4" font-family="Times,serif" font-size="14.00" fill="#000000">∀y(p(a,y) ∧ ¬p(y,a)), p(a,a) ∧ ¬p(a,a)</text>
</g>
<!-- l2100&#45;&gt;l2200 -->
<g id="edge9" class="edge">
<title>l2100&#45;&gt;l2200</title>
<path fill="none" stroke="#000000" d="M571.8006,-323.5551C571.9316,-313.9912 572.094,-302.1334 572.2345,-291.8833"/>
<polygon fill="#000000" stroke="#000000" points="572.3056,-286.6904 574.4868,-291.7208 572.2713,-289.1901 572.237,-291.6899 572.237,-291.6899 572.237,-291.6899 572.2713,-289.1901 569.9872,-291.659 572.3056,-286.6904 572.3056,-286.6904"/>
</g>
<!-- l2300 -->
<g id="node14" class="node">
<title>l2300</title>
<text text-anchor="middle" x="572.5534" y="-191.4" font-family="Times,serif" font-size="14.00" fill="#000000">∀y(p(a,y) ∧ ¬p(y,a)), p(a,a), ¬p(a,a)</text>
</g>
<!-- l2200&#45;&gt;l2300 -->
<g id="edge10" class="edge">
<title>l2200&#45;&gt;l2300</title>
<path fill="none" stroke="#000000" d="M572.5534,-250.5551C572.5534,-240.9912 572.5534,-229.1334 572.5534,-218.8833"/>
<polygon fill="#000000" stroke="#000000" points="572.5534,-213.6904 574.8035,-218.6903 572.5534,-216.1904 572.5535,-218.6904 572.5535,-218.6904 572.5535,-218.6904 572.5534,-216.1904 570.3035,-218.6904 572.5534,-213.6904 572.5534,-213.6904"/>
</g>
<!-- l2300&#45;&gt;x2310 -->
<g id="edge13" class="edge">
<title>l2300&#45;&gt;x2310</title>
<path fill="none" stroke="#ffffff" d="M572.5534,-177.2006C572.5534,-163.5367 572.5534,-144.8004 572.5534,-130.0919"/>
<polygon fill="#ffffff" stroke="#ffffff" points="572.5534,-124.872 574.8035,-129.872 572.5534,-127.372 572.5535,-129.872 572.5535,-129.872 572.5535,-129.872 572.5534,-127.372 570.3035,-129.8721 572.5534,-124.872 572.5534,-124.872"/>
<text text-anchor="middle" x="576.6337" y="-147" font-family="Times,serif" font-size="14.00" fill="#000000">×</text>
</g>
</g>
</svg>
