<?xml version="1.0" encoding="UTF-8" standalone="no"?>
<!DOCTYPE svg PUBLIC "-//W3C//DTD SVG 1.1//EN"
 "http://www.w3.org/Graphics/SVG/1.1/DTD/svg11.dtd">
<!-- Generated by graphviz version 2.40.1 (20161225.0304)
 -->
<!-- Title: G Pages: 1 -->
<svg width="704pt" height="514pt"
 viewBox="0.00 0.00 704.25 513.60" xmlns="http://www.w3.org/2000/svg" xmlns:xlink="http://www.w3.org/1999/xlink">
<g id="graph0" class="graph" transform="scale(1 1) rotate(0) translate(4 509.6)">
<title>G</title>
<polygon fill="#ffffff" stroke="transparent" points="-4,4 -4,-509.6 700.2495,-509.6 700.2495,4 -4,4"/>
<!-- o1 -->
<g id="node1" class="node">
<title>o1</title>
</g>
<!-- x1211 -->
<g id="node2" class="node">
<title>x1211</title>
</g>
<!-- x1222 -->
<g id="node3" class="node">
<title>x1222</title>
</g>
<!-- x2310 -->
<g id="node4" class="node">
<title>x2310</title>
</g>
<!-- l0000 -->
<g id="node5" class="node">
<title>l0000</title>
<text text-anchor="middle" x="495.9461" y="-483.4" font-family="Times,serif" font-size="14.00" fill="#000000">∀x∃y(p(x,y) ∧ ¬p(y,x)) → ∃x∀y(p(x,y) ∧ ¬p(y,x))</text>
</g>
<!-- l1000 -->
<g id="node6" class="node">
<title>l1000</title>
<text text-anchor="middle" x="382.9461" y="-410.4" font-family="Times,serif" font-size="14.00" fill="#000000">¬(∀x∃y(p(x,y) ∧ ¬p(y,x)))</text>
</g>
<!-- l0000&#45;&gt;l1000 -->
<g id="edge1" class="edge">
<title>l0000&#45;&gt;l1000</title>
<path fill="none" stroke="#000000" d="M468.0135,-469.5551C452.1227,-459.2893 432.1405,-446.3804 415.5364,-435.6539"/>
<polygon fill="#000000" stroke="#000000" points="410.949,-432.6904 416.3698,-433.5136 413.0489,-434.047 415.1488,-435.4036 415.1488,-435.4036 415.1488,-435.4036 413.0489,-434.047 413.9279,-437.2935 410.949,-432.6904 410.949,-432.6904"/>
</g>
<!-- l2000 -->
<g id="node12" class="node">
<title>l2000</title>
<text text-anchor="middle" x="569.9461" y="-410.4" font-family="Times,serif" font-size="14.00" fill="#000000">∃x∀y(p(x,y) ∧ ¬p(y,x))</text>
</g>
<!-- l0000&#45;&gt;l2000 -->
<g id="edge2" class="edge">
<title>l0000&#45;&gt;l2000</title>
<path fill="none" stroke="#000000" d="M514.2382,-469.5551C524.4667,-459.4648 537.2837,-446.821 548.0442,-436.2059"/>
<polygon fill="#000000" stroke="#000000" points="551.6079,-432.6904 549.6285,-437.8036 549.8282,-434.4461 548.0484,-436.2018 548.0484,-436.2018 548.0484,-436.2018 549.8282,-434.4461 546.4683,-434.6 551.6079,-432.6904 551.6079,-432.6904"/>
</g>
<!-- l1100 -->
<g id="node7" class="node">
<title>l1100</title>
<text text-anchor="middle" x="316.9461" y="-337.4" font-family="Times,serif" font-size="14.00" fill="#000000">¬∃y(p(a,y) ∧ ¬p(y,a))</text>
</g>
<!-- l1000&#45;&gt;l1100 -->
<g id="edge3" class="edge">
<title>l1000&#45;&gt;l1100</title>
<path fill="none" stroke="#000000" d="M366.6315,-396.5551C357.5881,-386.5525 346.2761,-374.0407 336.731,-363.4833"/>
<polygon fill="#000000" stroke="#000000" points="333.3018,-359.6904 338.324,-361.8903 334.9784,-361.5448 336.655,-363.3993 336.655,-363.3993 336.655,-363.3993 334.9784,-361.5448 334.986,-364.9082 333.3018,-359.6904 333.3018,-359.6904"/>
</g>
<!-- l1200 -->
<g id="node8" class="node">
<title>l1200</title>
<text text-anchor="middle" x="299.9461" y="-264.4" font-family="Times,serif" font-size="14.00" fill="#000000">¬∃y(p(a,y) ∧ ¬p(y,a)), ¬(p(a,b) ∧ ¬p(b,a))</text>
</g>
<!-- l1100&#45;&gt;l1200 -->
<g id="edge4" class="edge">
<title>l1100&#45;&gt;l1200</title>
<path fill="none" stroke="#000000" d="M312.7439,-323.5551C310.4962,-313.9035 307.7045,-301.9156 305.3026,-291.6016"/>
<polygon fill="#000000" stroke="#000000" points="304.1589,-286.6904 307.4844,-291.0497 304.726,-289.1252 305.293,-291.5601 305.293,-291.5601 305.293,-291.5601 304.726,-289.1252 303.1017,-292.0704 304.1589,-286.6904 304.1589,-286.6904"/>
</g>
<!-- l1210 -->
<g id="node9" class="node">
<title>l1210</title>
<text text-anchor="middle" x="98.9461" y="-191.4" font-family="Times,serif" font-size="14.00" fill="#000000">¬∃y(p(a,y) ∧ ¬p(y,a)), ¬p(a,b)</text>
</g>
<!-- l1200&#45;&gt;l1210 -->
<g id="edge5" class="edge">
<title>l1200&#45;&gt;l1210</title>
<path fill="none" stroke="#000000" d="M250.2607,-250.5551C220.9076,-239.8945 183.7063,-226.3836 153.536,-215.4262"/>
<polygon fill="#000000" stroke="#000000" points="148.7565,-213.6904 154.2243,-213.2824 151.1064,-214.5438 153.4562,-215.3973 153.4562,-215.3973 153.4562,-215.3973 151.1064,-214.5438 152.6881,-217.5121 148.7565,-213.6904 148.7565,-213.6904"/>
</g>
<!-- l1220 -->
<g id="node10" class="node">
<title>l1220</title>
<text text-anchor="middle" x="319.9461" y="-191.4" font-family="Times,serif" font-size="14.00" fill="#000000">¬∃y(p(a,y) ∧ ¬p(y,a)), ¬¬p(b,a)</text>
</g>
<!-- l1200&#45;&gt;l1220 -->
<g id="edge6" class="edge">
<title>l1200&#45;&gt;l1220</title>
<path fill="none" stroke="#000000" d="M304.8899,-250.5551C307.5342,-240.9035 310.8185,-228.9156 313.6443,-218.6016"/>
<polygon fill="#000000" stroke="#000000" points="314.9898,-213.6904 315.8386,-219.1072 314.3292,-216.1015 313.6686,-218.5127 313.6686,-218.5127 313.6686,-218.5127 314.3292,-216.1015 311.4986,-217.9181 314.9898,-213.6904 314.9898,-213.6904"/>
</g>
<!-- l1210&#45;&gt;x1211 -->
<g id="edge11" class="edge">
<title>l1210&#45;&gt;x1211</title>
<path fill="none" stroke="#ffffff" d="M98.9461,-177.2006C98.9461,-163.5367 98.9461,-144.8004 98.9461,-130.0919"/>
<polygon fill="#ffffff" stroke="#ffffff" points="98.9461,-124.872 101.1962,-129.872 98.9461,-127.372 98.9462,-129.872 98.9462,-129.872 98.9462,-129.872 98.9461,-127.372 96.6962,-129.8721 98.9461,-124.872 98.9461,-124.872"/>
<text text-anchor="middle" x="104.1961" y="-147" font-family="Times,serif" font-size="14.00" fill="#000000">⊙</text>
</g>
<!-- l1221 -->
<g id="node11" class="node">
<title>l1221</title>
<text text-anchor="middle" x="319.9461" y="-102.6" font-family="Times,serif" font-size="14.00" fill="#000000">¬∃y(p(a,y) ∧ ¬p(y,a)), p(b,a)</text>
</g>
<!-- l1220&#45;&gt;l1221 -->
<g id="edge7" class="edge">
<title>l1220&#45;&gt;l1221</title>
<path fill="none" stroke="#000000" d="M319.9461,-177.2006C319.9461,-163.5367 319.9461,-144.8004 319.9461,-130.0919"/>
<polygon fill="#000000" stroke="#000000" points="319.9461,-124.872 322.1962,-129.872 319.9461,-127.372 319.9462,-129.872 319.9462,-129.872 319.9462,-129.872 319.9461,-127.372 317.6962,-129.8721 319.9461,-124.872 319.9461,-124.872"/>
</g>
<!-- l1221&#45;&gt;x1222 -->
<g id="edge12" class="edge">
<title>l1221&#45;&gt;x1222</title>
<path fill="none" stroke="#ffffff" d="M319.9461,-88.4006C319.9461,-74.7367 319.9461,-56.0004 319.9461,-41.2919"/>
<polygon fill="#ffffff" stroke="#ffffff" points="319.9461,-36.072 322.1962,-41.072 319.9461,-38.572 319.9462,-41.072 319.9462,-41.072 319.9462,-41.072 319.9461,-38.572 317.6962,-41.0721 319.9461,-36.072 319.9461,-36.072"/>
<text text-anchor="middle" x="325.1961" y="-58.2" font-family="Times,serif" font-size="14.00" fill="#000000">⊙</text>
</g>
<!-- l2100 -->
<g id="node13" class="node">
<title>l2100</title>
<text text-anchor="middle" x="573.9461" y="-337.4" font-family="Times,serif" font-size="14.00" fill="#000000">∀y(p(a,y) ∧ ¬p(y,a))</text>
</g>
<!-- l2000&#45;&gt;l2100 -->
<g id="edge8" class="edge">
<title>l2000&#45;&gt;l2100</title>
<path fill="none" stroke="#000000" d="M570.9349,-396.5551C571.4589,-386.9912 572.1087,-375.1334 572.6703,-364.8833"/>
<polygon fill="#000000" stroke="#000000" points="572.9548,-359.6904 574.9278,-364.806 572.818,-362.1866 572.6812,-364.6829 572.6812,-364.6829 572.6812,-364.6829 572.818,-362.1866 570.4346,-364.5597 572.9548,-359.6904 572.9548,-359.6904"/>
</g>
<!-- l2200 -->
<g id="node14" class="node">
<title>l2200</title>
<text text-anchor="middle" x="574.9461" y="-264.4" font-family="Times,serif" font-size="14.00" fill="#000000">∀y(p(a,y) ∧ ¬p(y,a)), p(a,b) ∧ ¬p(b,a)</text>
</g>
<!-- l2100&#45;&gt;l2200 -->
<g id="edge9" class="edge">
<title>l2100&#45;&gt;l2200</title>
<path fill="none" stroke="#000000" d="M574.1933,-323.5551C574.3243,-313.9912 574.4867,-302.1334 574.6272,-291.8833"/>
<polygon fill="#000000" stroke="#000000" points="574.6983,-286.6904 576.8795,-291.7208 574.664,-289.1901 574.6297,-291.6899 574.6297,-291.6899 574.6297,-291.6899 574.664,-289.1901 572.3799,-291.659 574.6983,-286.6904 574.6983,-286.6904"/>
</g>
<!-- l2300 -->
<g id="node15" class="node">
<title>l2300</title>
<text text-anchor="middle" x="574.9461" y="-191.4" font-family="Times,serif" font-size="14.00" fill="#000000">∀y(p(a,y) ∧ ¬p(y,a)), p(a,b), ¬p(b,a)</text>
</g>
<!-- l2200&#45;&gt;l2300 -->
<g id="edge10" class="edge">
<title>l2200&#45;&gt;l2300</title>
<path fill="none" stroke="#000000" d="M574.9461,-250.5551C574.9461,-240.9912 574.9461,-229.1334 574.9461,-218.8833"/>
<polygon fill="#000000" stroke="#000000" points="574.9461,-213.6904 577.1962,-218.6903 574.9461,-216.1904 574.9462,-218.6904 574.9462,-218.6904 574.9462,-218.6904 574.9461,-216.1904 572.6962,-218.6904 574.9461,-213.6904 574.9461,-213.6904"/>
</g>
<!-- l2300&#45;&gt;x2310 -->
<g id="edge13" class="edge">
<title>l2300&#45;&gt;x2310</title>
<path fill="none" stroke="#ffffff" d="M574.9461,-177.2006C574.9461,-163.5367 574.9461,-144.8004 574.9461,-130.0919"/>
<polygon fill="#ffffff" stroke="#ffffff" points="574.9461,-124.872 577.1962,-129.872 574.9461,-127.372 574.9462,-129.872 574.9462,-129.872 574.9462,-129.872 574.9461,-127.372 572.6962,-129.8721 574.9461,-124.872 574.9461,-124.872"/>
<text text-anchor="middle" x="580.1961" y="-147" font-family="Times,serif" font-size="14.00" fill="#000000">⊙</text>
</g>
</g>
</svg>
