<?xml version="1.0" encoding="UTF-8" standalone="no"?>
<!DOCTYPE svg PUBLIC "-//W3C//DTD SVG 1.1//EN"
 "http://www.w3.org/Graphics/SVG/1.1/DTD/svg11.dtd">
<!-- Generated by graphviz version 2.40.1 (20161225.0304)
 -->
<!-- Title: G Pages: 1 -->
<svg width="946pt" height="733pt"
 viewBox="0.00 0.00 945.52 732.60" xmlns="http://www.w3.org/2000/svg" xmlns:xlink="http://www.w3.org/1999/xlink">
<g id="graph0" class="graph" transform="scale(1 1) rotate(0) translate(4 728.6)">
<title>G</title>
<polygon fill="#ffffff" stroke="transparent" points="-4,4 -4,-728.6 941.5158,-728.6 941.5158,4 -4,4"/>
<!-- l711 -->
<g id="node1" class="node">
<title>l711</title>
</g>
<!-- l722 -->
<g id="node2" class="node">
<title>l722</title>
</g>
<!-- l1 -->
<g id="node3" class="node">
<title>l1</title>
<text text-anchor="middle" x="465.4276" y="-702.4" font-family="Times,serif" font-size="14.00" fill="#000000">¬(∀x∃y(p(x,y) ∧ ¬p(y,x)) → ∃x∀y(p(x,y) ∧ ¬p(y,x)))</text>
</g>
<!-- l2 -->
<g id="node4" class="node">
<title>l2</title>
<text text-anchor="middle" x="465.4276" y="-629.4" font-family="Times,serif" font-size="14.00" fill="#000000">∀x∃y(p(x,y) ∧ ¬p(y,x)), ¬∃x∀y(p(x,y) ∧ ¬p(y,x))</text>
</g>
<!-- l1&#45;&gt;l2 -->
<g id="edge1" class="edge">
<title>l1&#45;&gt;l2</title>
<path fill="none" stroke="#000000" d="M465.4276,-688.5551C465.4276,-678.9912 465.4276,-667.1334 465.4276,-656.8833"/>
<polygon fill="#000000" stroke="#000000" points="465.4276,-651.6904 467.6777,-656.6903 465.4276,-654.1904 465.4277,-656.6904 465.4277,-656.6904 465.4277,-656.6904 465.4276,-654.1904 463.1777,-656.6904 465.4276,-651.6904 465.4276,-651.6904"/>
</g>
<!-- l3 -->
<g id="node5" class="node">
<title>l3</title>
<text text-anchor="middle" x="465.4276" y="-556.4" font-family="Times,serif" font-size="14.00" fill="#000000">∀x∃y(p(x,y) ∧ ¬p(y,x)), ∃y(p(a,y) ∧ ¬p(y,a)), ¬∃x∀y(p(x,y) ∧ ¬p(y,x))</text>
</g>
<!-- l2&#45;&gt;l3 -->
<g id="edge2" class="edge">
<title>l2&#45;&gt;l3</title>
<path fill="none" stroke="#000000" d="M465.4276,-615.5551C465.4276,-605.9912 465.4276,-594.1334 465.4276,-583.8833"/>
<polygon fill="#000000" stroke="#000000" points="465.4276,-578.6904 467.6777,-583.6903 465.4276,-581.1904 465.4277,-583.6904 465.4277,-583.6904 465.4277,-583.6904 465.4276,-581.1904 463.1777,-583.6904 465.4276,-578.6904 465.4276,-578.6904"/>
</g>
<!-- l4 -->
<g id="node6" class="node">
<title>l4</title>
<text text-anchor="middle" x="465.4276" y="-483.4" font-family="Times,serif" font-size="14.00" fill="#000000">∀x∃y(p(x,y) ∧ ¬p(y,x)), ∃y(p(a,y) ∧ ¬p(y,a)), ¬∃x∀y(p(x,y) ∧ ¬p(y,x)), ¬∀y(p(a,y) ∧ ¬p(y,a))</text>
</g>
<!-- l3&#45;&gt;l4 -->
<g id="edge3" class="edge">
<title>l3&#45;&gt;l4</title>
<path fill="none" stroke="#000000" d="M465.4276,-542.5551C465.4276,-532.9912 465.4276,-521.1334 465.4276,-510.8833"/>
<polygon fill="#000000" stroke="#000000" points="465.4276,-505.6904 467.6777,-510.6903 465.4276,-508.1904 465.4277,-510.6904 465.4277,-510.6904 465.4277,-510.6904 465.4276,-508.1904 463.1777,-510.6904 465.4276,-505.6904 465.4276,-505.6904"/>
</g>
<!-- l5 -->
<g id="node7" class="node">
<title>l5</title>
<text text-anchor="middle" x="465.4276" y="-410.4" font-family="Times,serif" font-size="14.00" fill="#000000">∀x∃y(p(x,y) ∧ ¬p(y,x)), p(a,b) ∧ ¬p(b,a), ¬∃x∀y(p(x,y) ∧ ¬p(y,x)), ¬∀y(p(a,y) ∧ ¬p(y,a))</text>
</g>
<!-- l4&#45;&gt;l5 -->
<g id="edge4" class="edge">
<title>l4&#45;&gt;l5</title>
<path fill="none" stroke="#000000" d="M465.4276,-469.5551C465.4276,-459.9912 465.4276,-448.1334 465.4276,-437.8833"/>
<polygon fill="#000000" stroke="#000000" points="465.4276,-432.6904 467.6777,-437.6903 465.4276,-435.1904 465.4277,-437.6904 465.4277,-437.6904 465.4277,-437.6904 465.4276,-435.1904 463.1777,-437.6904 465.4276,-432.6904 465.4276,-432.6904"/>
</g>
<!-- l6 -->
<g id="node8" class="node">
<title>l6</title>
<text text-anchor="middle" x="465.4276" y="-337.4" font-family="Times,serif" font-size="14.00" fill="#000000">∀x∃y(p(x,y) ∧ ¬p(y,x)), p(a,b) ∧ ¬p(b,a), ¬∃x∀y(p(x,y) ∧ ¬p(y,x)), ¬(p(a,c) ∧ ¬p(c,a))</text>
</g>
<!-- l5&#45;&gt;l6 -->
<g id="edge5" class="edge">
<title>l5&#45;&gt;l6</title>
<path fill="none" stroke="#000000" d="M465.4276,-396.5551C465.4276,-386.9912 465.4276,-375.1334 465.4276,-364.8833"/>
<polygon fill="#000000" stroke="#000000" points="465.4276,-359.6904 467.6777,-364.6903 465.4276,-362.1904 465.4277,-364.6904 465.4277,-364.6904 465.4277,-364.6904 465.4276,-362.1904 463.1777,-364.6904 465.4276,-359.6904 465.4276,-359.6904"/>
</g>
<!-- l7 -->
<g id="node9" class="node">
<title>l7</title>
<text text-anchor="middle" x="465.4276" y="-264.4" font-family="Times,serif" font-size="14.00" fill="#000000">∀x∃y(p(x,y) ∧ ¬p(y,x)), p(a,b), ¬p(b,a), ¬∃x∀y(p(x,y) ∧ ¬p(y,x)), ¬(p(a,c) ∧ ¬p(c,a))</text>
</g>
<!-- l6&#45;&gt;l7 -->
<g id="edge6" class="edge">
<title>l6&#45;&gt;l7</title>
<path fill="none" stroke="#000000" d="M465.4276,-323.5551C465.4276,-313.9912 465.4276,-302.1334 465.4276,-291.8833"/>
<polygon fill="#000000" stroke="#000000" points="465.4276,-286.6904 467.6777,-291.6903 465.4276,-289.1904 465.4277,-291.6904 465.4277,-291.6904 465.4277,-291.6904 465.4276,-289.1904 463.1777,-291.6904 465.4276,-286.6904 465.4276,-286.6904"/>
</g>
<!-- l71 -->
<g id="node10" class="node">
<title>l71</title>
<text text-anchor="middle" x="227.4276" y="-191.4" font-family="Times,serif" font-size="14.00" fill="#000000">∀x∃y(p(x,y) ∧ ¬p(y,x)), p(a,b), ¬p(b,a), ¬∃x∀y(p(x,y) ∧ ¬p(y,x)), ¬p(a,c)</text>
</g>
<!-- l7&#45;&gt;l71 -->
<g id="edge7" class="edge">
<title>l7&#45;&gt;l71</title>
<path fill="none" stroke="#000000" d="M406.5961,-250.5551C371.6967,-239.8506 327.4277,-226.2723 291.6258,-215.291"/>
<polygon fill="#000000" stroke="#000000" points="286.4071,-213.6904 291.8471,-213.0055 288.7972,-214.4235 291.1873,-215.1566 291.1873,-215.1566 291.1873,-215.1566 288.7972,-214.4235 290.5275,-217.3077 286.4071,-213.6904 286.4071,-213.6904"/>
</g>
<!-- l72 -->
<g id="node11" class="node">
<title>l72</title>
<text text-anchor="middle" x="705.4276" y="-191.4" font-family="Times,serif" font-size="14.00" fill="#000000">∀x∃y(p(x,y) ∧ ¬p(y,x)), p(a,b), ¬p(b,a), ¬∃x∀y(p(x,y) ∧ ¬p(y,x)), ¬¬p(c,a)</text>
</g>
<!-- l7&#45;&gt;l72 -->
<g id="edge8" class="edge">
<title>l7&#45;&gt;l72</title>
<path fill="none" stroke="#000000" d="M524.7535,-250.5551C560.0904,-239.8067 604.9532,-226.161 641.1334,-215.1562"/>
<polygon fill="#000000" stroke="#000000" points="645.9524,-213.6904 641.8236,-217.2981 643.5606,-214.4179 641.1688,-215.1454 641.1688,-215.1454 641.1688,-215.1454 643.5606,-214.4179 640.514,-212.9928 645.9524,-213.6904 645.9524,-213.6904"/>
</g>
<!-- l71&#45;&gt;l711 -->
<g id="edge9" class="edge">
<title>l71&#45;&gt;l711</title>
<path fill="none" stroke="#ffffff" d="M227.4276,-177.2006C227.4276,-163.5367 227.4276,-144.8004 227.4276,-130.0919"/>
<polygon fill="#ffffff" stroke="#ffffff" points="227.4276,-124.872 229.6777,-129.872 227.4276,-127.372 227.4277,-129.872 227.4277,-129.872 227.4277,-129.872 227.4276,-127.372 225.1777,-129.8721 227.4276,-124.872 227.4276,-124.872"/>
<text text-anchor="middle" x="232.6776" y="-147" font-family="Times,serif" font-size="14.00" fill="#000000">⊙</text>
</g>
<!-- l721 -->
<g id="node12" class="node">
<title>l721</title>
<text text-anchor="middle" x="705.4276" y="-102.6" font-family="Times,serif" font-size="14.00" fill="#000000">∀x∃y(p(x,y) ∧ ¬p(y,x)), p(a,b), ¬p(b,a), ¬∃x∀y(p(x,y) ∧ ¬p(y,x)), p(c,a)</text>
</g>
<!-- l72&#45;&gt;l721 -->
<g id="edge10" class="edge">
<title>l72&#45;&gt;l721</title>
<path fill="none" stroke="#000000" d="M705.4276,-177.2006C705.4276,-163.5367 705.4276,-144.8004 705.4276,-130.0919"/>
<polygon fill="#000000" stroke="#000000" points="705.4276,-124.872 707.6777,-129.872 705.4276,-127.372 705.4277,-129.872 705.4277,-129.872 705.4277,-129.872 705.4276,-127.372 703.1777,-129.8721 705.4276,-124.872 705.4276,-124.872"/>
</g>
<!-- l721&#45;&gt;l722 -->
<g id="edge11" class="edge">
<title>l721&#45;&gt;l722</title>
<path fill="none" stroke="#ffffff" d="M705.4276,-88.4006C705.4276,-74.7367 705.4276,-56.0004 705.4276,-41.2919"/>
<polygon fill="#ffffff" stroke="#ffffff" points="705.4276,-36.072 707.6777,-41.072 705.4276,-38.572 705.4277,-41.072 705.4277,-41.072 705.4277,-41.072 705.4276,-38.572 703.1777,-41.0721 705.4276,-36.072 705.4276,-36.072"/>
<text text-anchor="middle" x="710.6776" y="-58.2" font-family="Times,serif" font-size="14.00" fill="#000000">⊙</text>
</g>
</g>
</svg>
