<?xml version="1.0" encoding="UTF-8" standalone="no"?>
<!DOCTYPE svg PUBLIC "-//W3C//DTD SVG 1.1//EN"
 "http://www.w3.org/Graphics/SVG/1.1/DTD/svg11.dtd">
<!-- Generated by graphviz version 2.40.1 (20161225.0304)
 -->
<!-- Title: G Pages: 1 -->
<svg width="241pt" height="368pt"
 viewBox="0.00 0.00 240.56 367.60" xmlns="http://www.w3.org/2000/svg" xmlns:xlink="http://www.w3.org/1999/xlink">
<g id="graph0" class="graph" transform="scale(1 1) rotate(0) translate(4 363.6)">
<title>G</title>
<polygon fill="#ffffff" stroke="transparent" points="-4,4 -4,-363.6 236.5621,-363.6 236.5621,4 -4,4"/>
<!-- o1 -->
<g id="node1" class="node">
<title>o1</title>
</g>
<!-- o2 -->
<g id="node2" class="node">
<title>o2</title>
</g>
<!-- o3 -->
<g id="node3" class="node">
<title>o3</title>
</g>
<!-- l0 -->
<g id="node4" class="node">
<title>l0</title>
<text text-anchor="middle" x="104.5621" y="-337.4" font-family="Times,serif" font-size="14.00" fill="#000000">((p ∧ q) → r) → (p → (q ∧ r))</text>
</g>
<!-- l01 -->
<g id="node5" class="node">
<title>l01</title>
<text text-anchor="middle" x="50.5621" y="-264.4" font-family="Times,serif" font-size="14.00" fill="#000000">¬((p ∧ q) → r)</text>
</g>
<!-- l0&#45;&gt;l01 -->
<g id="edge1" class="edge">
<title>l0&#45;&gt;l01</title>
<path fill="none" stroke="#000000" d="M91.2138,-323.5551C82.906,-312.3241 72.2581,-297.9298 63.944,-286.6904"/>
</g>
<!-- l02 -->
<g id="node6" class="node">
<title>l02</title>
<text text-anchor="middle" x="160.5621" y="-264.4" font-family="Times,serif" font-size="14.00" fill="#000000">p → (q ∧ r)</text>
</g>
<!-- l0&#45;&gt;l02 -->
<g id="edge5" class="edge">
<title>l0&#45;&gt;l02</title>
<path fill="none" stroke="#000000" d="M118.4048,-323.5551C127.0203,-312.3241 138.0625,-297.9298 146.6846,-286.6904"/>
</g>
<!-- l011 -->
<g id="node7" class="node">
<title>l011</title>
<text text-anchor="middle" x="50.5621" y="-191.4" font-family="Times,serif" font-size="14.00" fill="#000000">p ∧ q, ¬r</text>
</g>
<!-- l01&#45;&gt;l011 -->
<g id="edge2" class="edge">
<title>l01&#45;&gt;l011</title>
<path fill="none" stroke="#000000" d="M50.5621,-250.5551C50.5621,-239.3241 50.5621,-224.9298 50.5621,-213.6904"/>
</g>
<!-- l021 -->
<g id="node9" class="node">
<title>l021</title>
<text text-anchor="middle" x="133.5621" y="-191.4" font-family="Times,serif" font-size="14.00" fill="#000000">¬p</text>
</g>
<!-- l02&#45;&gt;l021 -->
<g id="edge6" class="edge">
<title>l02&#45;&gt;l021</title>
<path fill="none" stroke="#000000" d="M153.8879,-250.5551C149.734,-239.3241 144.4101,-224.9298 140.2531,-213.6904"/>
</g>
<!-- l022 -->
<g id="node10" class="node">
<title>l022</title>
<text text-anchor="middle" x="205.5621" y="-191.4" font-family="Times,serif" font-size="14.00" fill="#000000">q ∧ r</text>
</g>
<!-- l02&#45;&gt;l022 -->
<g id="edge8" class="edge">
<title>l02&#45;&gt;l022</title>
<path fill="none" stroke="#000000" d="M171.6857,-250.5551C178.6089,-239.3241 187.4821,-224.9298 194.4105,-213.6904"/>
</g>
<!-- l0111 -->
<g id="node8" class="node">
<title>l0111</title>
<text text-anchor="middle" x="50.5621" y="-102.6" font-family="Times,serif" font-size="14.00" fill="#000000">p, q, ¬r</text>
</g>
<!-- l011&#45;&gt;l0111 -->
<g id="edge3" class="edge">
<title>l011&#45;&gt;l0111</title>
<path fill="none" stroke="#000000" d="M50.5621,-177.2006C50.5621,-161.8587 50.5621,-140.122 50.5621,-124.872"/>
</g>
<!-- l0111&#45;&gt;o1 -->
<g id="edge4" class="edge">
<title>l0111&#45;&gt;o1</title>
<path fill="none" stroke="#ffffff" d="M50.5621,-88.4006C50.5621,-73.0587 50.5621,-51.322 50.5621,-36.072"/>
<text text-anchor="middle" x="55.8121" y="-58.2" font-family="Times,serif" font-size="14.00" fill="#000000">⊙</text>
</g>
<!-- l021&#45;&gt;o2 -->
<g id="edge7" class="edge">
<title>l021&#45;&gt;o2</title>
<path fill="none" stroke="#ffffff" d="M133.5621,-177.2006C133.5621,-161.8587 133.5621,-140.122 133.5621,-124.872"/>
<text text-anchor="middle" x="138.8121" y="-147" font-family="Times,serif" font-size="14.00" fill="#000000">⊙</text>
</g>
<!-- l0221 -->
<g id="node11" class="node">
<title>l0221</title>
<text text-anchor="middle" x="205.5621" y="-102.6" font-family="Times,serif" font-size="14.00" fill="#000000">q, r</text>
</g>
<!-- l022&#45;&gt;l0221 -->
<g id="edge9" class="edge">
<title>l022&#45;&gt;l0221</title>
<path fill="none" stroke="#000000" d="M205.5621,-177.2006C205.5621,-161.8587 205.5621,-140.122 205.5621,-124.872"/>
</g>
<!-- l0221&#45;&gt;o3 -->
<g id="edge10" class="edge">
<title>l0221&#45;&gt;o3</title>
<path fill="none" stroke="#ffffff" d="M205.5621,-88.4006C205.5621,-73.0587 205.5621,-51.322 205.5621,-36.072"/>
<text text-anchor="middle" x="210.8121" y="-58.2" font-family="Times,serif" font-size="14.00" fill="#000000">⊙</text>
</g>
</g>
</svg>
